<mxfile host="65bd71144e">
    <diagram id="rp-6yvsniZj_nDjMNzND" name="Page-1">
        <mxGraphModel dx="610" dy="499" grid="1" gridSize="10" guides="1" tooltips="1" connect="1" arrows="1" fold="1" page="1" pageScale="1" pageWidth="1169" pageHeight="827" math="1" shadow="0">
            <root>
                <mxCell id="0"/>
                <mxCell id="1" parent="0"/>
                <mxCell id="12" value="M1 - structural mobilization" style="text;html=1;strokeColor=none;fillColor=none;align=center;verticalAlign=middle;whiteSpace=wrap;rounded=0;dashed=1;dashPattern=8 8;fontSize=18;" vertex="1" parent="1">
                    <mxGeometry x="50" width="220" height="30" as="geometry"/>
                </mxCell>
                <mxCell id="21" value="M1 - structural mobilization" style="text;html=1;strokeColor=none;fillColor=none;align=center;verticalAlign=middle;whiteSpace=wrap;rounded=0;dashed=1;dashPattern=8 8;fontSize=18;" vertex="1" parent="1">
                    <mxGeometry x="584" width="220" height="30" as="geometry"/>
                </mxCell>
                <mxCell id="22" value="" style="group" vertex="1" connectable="0" parent="1">
                    <mxGeometry x="40" y="521" width="400" height="269" as="geometry"/>
                </mxCell>
                <mxCell id="11" value="" style="rounded=0;whiteSpace=wrap;html=1;dashed=1;dashPattern=8 8;fontSize=18;" vertex="1" parent="22">
                    <mxGeometry width="400" height="269" as="geometry"/>
                </mxCell>
                <mxCell id="2" value="S" style="rounded=1;whiteSpace=wrap;html=1;" vertex="1" parent="22">
                    <mxGeometry x="30" y="39.851851851851855" width="120" height="59.77777777777778" as="geometry"/>
                </mxCell>
                <mxCell id="3" value="M" style="rounded=1;whiteSpace=wrap;html=1;dashed=1;dashPattern=8 8;" vertex="1" parent="22">
                    <mxGeometry x="30" y="169.37037037037038" width="120" height="59.77777777777778" as="geometry"/>
                </mxCell>
                <mxCell id="8" value="&lt;font style=&quot;font-size: 18px;&quot;&gt;$$\kappa$$&lt;/font&gt;" style="edgeStyle=none;html=1;labelBackgroundColor=none;labelPosition=left;verticalLabelPosition=middle;align=right;verticalAlign=middle;" edge="1" parent="22" source="2" target="3">
                    <mxGeometry relative="1" as="geometry"/>
                </mxCell>
                <mxCell id="4" value="J" style="rounded=1;whiteSpace=wrap;html=1;dashed=1;dashPattern=8 8;" vertex="1" parent="22">
                    <mxGeometry x="230" y="169.37037037037038" width="120" height="59.77777777777778" as="geometry"/>
                </mxCell>
                <mxCell id="7" value="" style="edgeStyle=none;html=1;" edge="1" parent="22" source="5" target="4">
                    <mxGeometry relative="1" as="geometry"/>
                </mxCell>
                <mxCell id="5" value="H" style="rounded=1;whiteSpace=wrap;html=1;" vertex="1" parent="22">
                    <mxGeometry x="230" y="39.851851851851855" width="120" height="59.77777777777778" as="geometry"/>
                </mxCell>
                <mxCell id="6" value="$$1-\kappa$$" style="edgeStyle=none;html=1;exitX=1;exitY=0.5;exitDx=0;exitDy=0;entryX=0;entryY=0.5;entryDx=0;entryDy=0;fontSize=18;labelBackgroundColor=none;labelPosition=center;verticalLabelPosition=top;align=center;verticalAlign=bottom;" edge="1" parent="22" source="2" target="5">
                    <mxGeometry relative="1" as="geometry">
                        <mxPoint as="offset"/>
                    </mxGeometry>
                </mxCell>
                <mxCell id="23" value="Metamorphs" style="text;html=1;strokeColor=none;fillColor=none;align=center;verticalAlign=middle;whiteSpace=wrap;rounded=0;dashed=1;dashPattern=8 8;fontSize=18;" vertex="1" parent="1">
                    <mxGeometry x="60" y="470" width="60" height="30" as="geometry"/>
                </mxCell>
                <mxCell id="33" value="Laravae" style="text;html=1;strokeColor=none;fillColor=none;align=center;verticalAlign=middle;whiteSpace=wrap;rounded=0;dashed=1;dashPattern=8 8;fontSize=18;" vertex="1" parent="1">
                    <mxGeometry x="40" y="60" width="60" height="30" as="geometry"/>
                </mxCell>
                <mxCell id="13" value="" style="rounded=0;whiteSpace=wrap;html=1;dashed=1;dashPattern=8 8;fontSize=18;" vertex="1" parent="1">
                    <mxGeometry x="40" y="110" width="410" height="320" as="geometry"/>
                </mxCell>
                <mxCell id="15" value="&lt;font style=&quot;font-size: 18px;&quot;&gt;$$\kappa$$&lt;/font&gt;" style="edgeStyle=none;html=1;labelBackgroundColor=none;labelPosition=left;verticalLabelPosition=middle;align=right;verticalAlign=middle;" edge="1" source="16" parent="1">
                    <mxGeometry x="-0.1429" y="-10" relative="1" as="geometry">
                        <mxPoint x="132.25" y="280" as="targetPoint"/>
                        <mxPoint as="offset"/>
                    </mxGeometry>
                </mxCell>
                <mxCell id="19" value="" style="edgeStyle=none;html=1;" edge="1" source="20" parent="1">
                    <mxGeometry relative="1" as="geometry">
                        <mxPoint x="337.25" y="280" as="targetPoint"/>
                    </mxGeometry>
                </mxCell>
                <mxCell id="14" value="$$1-\kappa$$" style="edgeStyle=none;html=1;exitX=1;exitY=0.5;exitDx=0;exitDy=0;entryX=0;entryY=0.5;entryDx=0;entryDy=0;fontSize=18;labelBackgroundColor=none;labelPosition=center;verticalLabelPosition=top;align=center;verticalAlign=bottom;" edge="1" source="16" parent="1">
                    <mxGeometry relative="1" as="geometry">
                        <mxPoint x="275.75" y="180" as="targetPoint"/>
                        <mxPoint as="offset"/>
                    </mxGeometry>
                </mxCell>
                <mxCell id="25" value="X" style="rounded=1;whiteSpace=wrap;html=1;" vertex="1" parent="1">
                    <mxGeometry x="163" y="120" width="122.99999999999999" height="60" as="geometry"/>
                </mxCell>
                <mxCell id="26" value="S" style="rounded=1;whiteSpace=wrap;html=1;" vertex="1" parent="1">
                    <mxGeometry x="81" y="240" width="122.99999999999999" height="60" as="geometry"/>
                </mxCell>
                <mxCell id="27" value="M" style="rounded=1;whiteSpace=wrap;html=1;dashed=1;dashPattern=8 8;" vertex="1" parent="1">
                    <mxGeometry x="81" y="353.5" width="122.99999999999999" height="60" as="geometry"/>
                </mxCell>
                <mxCell id="28" value="J" style="rounded=1;whiteSpace=wrap;html=1;dashed=1;dashPattern=8 8;" vertex="1" parent="1">
                    <mxGeometry x="255.24999999999997" y="354" width="122.99999999999999" height="60" as="geometry"/>
                </mxCell>
                <mxCell id="29" value="H" style="rounded=1;whiteSpace=wrap;html=1;" vertex="1" parent="1">
                    <mxGeometry x="255.24999999999997" y="240" width="122.99999999999999" height="60" as="geometry"/>
                </mxCell>
            </root>
        </mxGraphModel>
    </diagram>
</mxfile>